HIERARCHY
ROOT Hips
{
	OFFSET 0.00000 0.00000 0.00000
	CHANNELS 6 Xposition Yposition Zposition Zrotation Yrotation Xrotation 
	JOINT LHipJoint
	{
		OFFSET 0 0 0
		CHANNELS 3 Zrotation Yrotation Xrotation
		JOINT LeftUpLeg
		{
			OFFSET 1.57338 -1.94743 0.52196
			CHANNELS 3 Zrotation Yrotation Xrotation
			JOINT LeftLeg
			{
				OFFSET 2.60333 -7.15259 0.00000
				CHANNELS 3 Zrotation Yrotation Xrotation
				JOINT LeftFoot
				{
					OFFSET 2.77855 -7.63400 0.00000
					CHANNELS 3 Zrotation Yrotation Xrotation
					JOINT LeftToeBase
					{
						OFFSET 0.19847 -0.54529 2.28466
						CHANNELS 3 Zrotation Yrotation Xrotation
						End Site
						{
							OFFSET 0.00000 -0.00000 1.17993
						}
					}
				}
			}
		}
	}
	JOINT RHipJoint
	{
		OFFSET 0 0 0
		CHANNELS 3 Zrotation Yrotation Xrotation
		JOINT RightUpLeg
		{
			OFFSET -1.61527 -1.94743 0.52196
			CHANNELS 3 Zrotation Yrotation Xrotation
			JOINT RightLeg
			{
				OFFSET -2.53829 -6.97390 0.00000
				CHANNELS 3 Zrotation Yrotation Xrotation
				JOINT RightFoot
				{
					OFFSET -2.80762 -7.71387 0.00000
					CHANNELS 3 Zrotation Yrotation Xrotation
					JOINT RightToeBase
					{
						OFFSET -0.30536 -0.83898 2.28801
						CHANNELS 3 Zrotation Yrotation Xrotation
						End Site
						{
							OFFSET -0.00000 -0.00000 1.21323
						}
					}
				}
			}
		}
	}
	JOINT LowerBack
	{
		OFFSET 0 0 0
		CHANNELS 3 Zrotation Yrotation Xrotation
		JOINT Spine
		{
			OFFSET -0.04381 1.99497 -0.19778
			CHANNELS 3 Zrotation Yrotation Xrotation
			JOINT Spine1
			{
				OFFSET -0.01959 2.01295 -0.04372
				CHANNELS 3 Zrotation Yrotation Xrotation
				JOINT Neck
				{
					OFFSET 0 0 0
					CHANNELS 3 Zrotation Yrotation Xrotation
					JOINT Neck1
					{
						OFFSET -0.05459 1.76913 0.09708
						CHANNELS 3 Zrotation Yrotation Xrotation
						JOINT Head
						{
							OFFSET 0.09461 1.77368 -0.11172
							CHANNELS 3 Zrotation Yrotation Xrotation
							End Site
							{
								OFFSET 0.03812 1.78157 -0.04834
							}
						}
					}
				}
				JOINT LeftShoulder
				{
					OFFSET 0 0 0
					CHANNELS 3 Zrotation Yrotation Xrotation
					JOINT LeftArm
					{
						OFFSET 3.50922 1.24034 -0.28866
						CHANNELS 3 Zrotation Yrotation Xrotation
						JOINT LeftForeArm
						{
							OFFSET 5.40188 -0.00000 0.00000
							CHANNELS 3 Zrotation Yrotation Xrotation
							JOINT LeftHand
							{
								OFFSET 3.68559 -0.00000 0.00000
								CHANNELS 3 Zrotation Yrotation Xrotation
								JOINT LeftFingerBase
								{
									OFFSET 0 0 0
									CHANNELS 3 Zrotation Yrotation Xrotation
									JOINT LeftHandIndex1
									{
										OFFSET 0.61753 -0.00000 0.00000
										CHANNELS 3 Zrotation Yrotation Xrotation
										End Site
										{
											OFFSET 0.49787 -0.00000 0.00000
										}
									}
								}
								JOINT LThumb
								{
									OFFSET 0 0 0
									CHANNELS 3 Zrotation Yrotation Xrotation
									End Site
									{
										OFFSET 0.50547 -0.00000 0.50547
									}
								}
							}
						}
					}
				}
				JOINT RightShoulder
				{
					OFFSET 0 0 0
					CHANNELS 3 Zrotation Yrotation Xrotation
					JOINT RightArm
					{
						OFFSET -2.95373 1.39649 -0.27346
						CHANNELS 3 Zrotation Yrotation Xrotation
						JOINT RightForeArm
						{
							OFFSET -6.10670 -0.00000 -0.00000
							CHANNELS 3 Zrotation Yrotation Xrotation
							JOINT RightHand
							{
								OFFSET -3.63052 -0.00000 0.00000
								CHANNELS 3 Zrotation Yrotation Xrotation
								JOINT RightFingerBase
								{
									OFFSET 0 0 0
									CHANNELS 3 Zrotation Yrotation Xrotation
									JOINT RightHandIndex1
									{
										OFFSET -0.58385 -0.00000 0.00000
										CHANNELS 3 Zrotation Yrotation Xrotation
										End Site
										{
											OFFSET -0.47071 -0.00000 0.00000
										}
									}
								}
								JOINT RThumb
								{
									OFFSET 0 0 0
									CHANNELS 3 Zrotation Yrotation Xrotation
									End Site
									{
										OFFSET -0.47790 -0.00000 0.47790
									}
								}
							}
						}
					}
				}
			}
		}
	}
}
MOTION
Frames: 10
Frame Time: 0.0333333
1.5851 26.4100 1.0351 170.3580 -6.8588 -168.9030 0.0000 0.0000 0.0000 -25.4247 2.6066 -42.4371 8.9963 16.8053 56.0773 0.0265 16.2985 11.7199 0.1020 -2.0593 -5.6694 0.0000 0.0000 0.0000 8.1735 20.0420 -49.4499 -15.1797 -19.4336 75.7774 -3.5723 0.7149 -35.6933 -0.0001 -0.0788 0.2165 -4.0134 -0.4030 30.4681 -3.4838 -3.6733 5.2272 -0.1269 -2.1965 -10.8885 -6.7591 -2.5794 -18.0477 6.4546 -2.7190 7.8427 2.8719 -1.0847 5.4668 0.0000 0.0000 0.0000 -72.1574 -20.5239 30.1441 104.7992 -59.1560 -72.7802 -0.0000 0.0000 -19.1295 23.1158 9.7033 4.1151 -7.1250 0.0000 -0.0000 -3.4107 40.4889 0.3799 0.0000 0.0000 0.0000 69.1427 36.5272 23.1306 -142.0352 46.8168 -103.0601 0.0000 -0.0000 -12.1558 -31.2938 -13.6888 8.1858 7.1250 -0.0000 -0.0000 -3.6719 -45.8567 0.0777
1.6525 26.5745 0.9535 170.0180 -7.4008 -169.1140 0.0000 0.0000 0.0000 -26.0621 5.4198 -46.9786 11.4525 18.1495 64.2426 -0.1942 13.1891 6.5496 0.3439 -3.7683 -10.4258 0.0000 0.0000 0.0000 8.5407 19.8940 -47.4801 -14.5120 -19.2620 73.7621 -3.4987 -0.0591 -35.5381 -0.0001 -0.0772 0.2121 -3.9149 -0.5388 30.7026 -3.5794 -3.8442 5.1728 -0.2183 -2.2738 -11.0793 -6.7970 -2.5251 -18.4189 6.2998 -2.5980 7.6921 2.8387 -1.0365 5.4676 0.0000 0.0000 0.0000 -72.3116 -20.2021 30.3100 100.7990 -59.5547 -69.3383 -0.0000 0.0000 -18.6705 23.2420 8.6514 3.6963 -7.1250 0.0000 -0.0000 -3.1820 39.3633 0.4425 0.0000 0.0000 0.0000 70.2583 34.6523 24.9336 -141.6469 47.0633 -102.7764 0.0000 -0.0000 -10.7500 -31.9822 -12.5201 7.7091 7.1250 -0.0000 -0.0000 -4.3836 -44.6060 -0.0427
1.7201 26.7808 0.8728 169.0170 -8.0853 -169.1900 0.0000 0.0000 0.0000 -27.3163 7.7730 -51.2684 14.0053 19.1156 72.2207 -0.2456 10.2804 2.0016 0.3082 -3.5691 -9.8676 0.0000 0.0000 0.0000 8.1844 19.2392 -45.5420 -13.8233 -19.0596 71.6642 -3.4060 -0.4127 -35.1661 -0.0043 -0.4240 1.1651 -4.1333 -0.7343 31.1430 -4.0567 -4.2844 4.6423 -0.3811 -2.4549 -11.1103 -6.2654 -2.3670 -18.2515 5.7596 -2.4503 7.0840 2.5922 -0.9971 5.2239 -0.0000 0.0000 0.0000 -72.2488 -19.8000 30.6137 96.5436 -59.8376 -65.6638 -0.0000 0.0000 -17.7989 23.8202 7.2817 3.2027 -7.1250 0.0000 -0.0000 -2.5525 37.9199 0.4453 -0.0000 0.0000 0.0000 71.6808 32.8799 26.7699 -141.0840 47.4144 -102.3630 0.0000 -0.0000 -8.8486 -33.1980 -11.6741 7.5422 7.1250 -0.0000 -0.0000 -5.5428 -43.7804 -0.1674
1.7892 26.9745 0.8290 169.6170 -8.6444 -169.0710 0.0000 0.0000 0.0000 -26.5208 9.5850 -56.6176 17.0339 19.7878 81.2983 -0.2379 8.7818 -1.3788 0.2587 -3.2721 -9.0371 0.0000 0.0000 0.0000 9.4427 19.4453 -43.9046 -12.9898 -18.7785 69.0939 -3.1963 -1.5774 -34.4427 -0.0010 -0.2066 0.5677 -3.3387 -0.9890 31.1148 -4.0099 -4.2801 4.4485 -0.7553 -2.4457 -11.3672 -6.4158 -2.1096 -17.2875 5.9719 -2.1388 5.1287 2.7088 -0.8714 4.4453 0.0000 0.0000 0.0000 -72.4525 -19.5749 30.9255 92.8524 -59.9692 -62.4700 -0.0000 0.0000 -16.9810 24.0841 6.7769 3.0193 -7.1250 0.0000 -0.0000 -2.2859 37.3873 0.4285 0.0000 0.0000 0.0000 73.2898 31.4131 28.5314 -140.2749 47.9062 -101.7650 0.0000 -0.0000 -7.1525 -34.1247 -10.2696 6.8889 7.1250 -0.0000 -0.0000 -6.3993 -42.2375 -0.4381
1.8604 27.1972 0.7882 169.4810 -9.2200 -168.9530 0.0000 0.0000 0.0000 -26.3954 10.8167 -61.4594 19.9783 20.0000 89.9365 -0.1278 6.9725 -5.6729 0.4369 -4.2416 -11.7572 0.0000 0.0000 0.0000 9.8340 19.4907 -42.1524 -12.1183 -18.4402 66.3633 -2.9556 -2.6826 -33.5438 -0.0057 -0.4860 1.3353 -3.5771 -0.8941 31.0060 -3.8216 -4.1737 4.3715 -0.4724 -2.3708 -11.3723 -6.5884 -1.9608 -16.6603 5.6859 -1.9171 3.5430 2.6630 -0.8133 3.8393 -0.0000 -0.0000 0.0000 -73.1886 -20.1145 31.5675 87.8010 -59.9817 -58.0957 -0.0000 0.0000 -16.3952 24.2267 5.8932 2.6452 -7.1250 0.0000 -0.0000 -2.1003 36.4306 0.4428 -0.0000 -0.0000 0.0000 74.0130 29.6683 29.4382 -139.4685 48.3816 -101.1644 0.0000 -0.0000 -5.5043 -34.8182 -9.6322 6.6377 7.1250 -0.0000 -0.0000 -7.0179 -41.5571 -0.5993
1.9200 27.4093 0.7541 169.3730 -10.2982 -168.9610 0.0000 0.0000 0.0000 -25.7930 10.9630 -65.5881 22.6597 19.8295 97.7977 0.1076 4.0628 -9.0156 0.5230 -4.6348 -12.8697 0.0000 0.0000 0.0000 10.3356 19.1765 -40.1716 -11.2721 -18.0657 63.6620 -2.7806 -3.6270 -32.9511 -0.0033 -0.3684 1.0122 -3.4424 -1.1183 31.1680 -3.6672 -4.3815 4.3162 -0.2970 -2.4535 -11.4971 -6.7686 -1.8188 -16.4345 5.3700 -1.6996 2.4529 2.6093 -0.7469 3.4517 0.0000 0.0000 0.0000 -73.7379 -20.7157 32.0751 83.2584 -59.8276 -54.1650 -0.0000 0.0000 -15.7143 24.7466 5.3070 2.4412 -7.1250 0.0000 -0.0000 -1.6267 35.8159 0.3673 0.0000 0.0000 0.0000 74.2727 28.5094 29.8317 -138.5766 48.8910 -100.4950 0.0000 -0.0000 -4.4555 -35.1001 -8.4808 5.9176 7.1250 -0.0000 -0.0000 -7.2347 -40.2058 -0.8602
1.9817 27.6057 0.7265 169.3080 -11.2465 -169.0410 0.0000 0.0000 0.0000 -24.8414 10.5396 -69.3756 24.9254 19.4081 104.5388 0.3485 -0.3390 -11.0365 0.5183 -4.6142 -12.8114 0.0000 0.0000 0.0000 10.9003 18.4655 -38.4704 -10.4923 -17.6776 61.1215 -2.5499 -4.5571 -32.0412 -0.0029 -0.3483 0.9569 -3.4121 -1.1435 31.0657 -3.5673 -4.3735 4.4108 -0.2178 -2.4524 -11.3402 -7.0504 -1.8686 -16.6829 5.5768 -1.7388 1.7771 2.7145 -0.7743 3.2888 0.0000 -0.0000 0.0000 -74.1020 -21.4466 33.0688 78.6099 -59.5041 -50.1523 -0.0000 0.0000 -14.7393 25.5878 5.2727 2.5197 -7.1250 0.0000 -0.0000 -0.9208 35.8208 0.2077 0.0000 -0.0000 0.0000 74.7627 27.3832 30.0898 -137.6935 49.3786 -99.8271 0.0000 -0.0000 -3.6740 -35.8674 -7.7110 5.5410 7.1250 -0.0000 -0.0000 -7.8783 -39.3485 -1.1052
2.0459 27.8480 0.6987 169.1460 -12.3238 -169.1640 0.0000 0.0000 0.0000 -24.0505 9.7553 -72.5830 26.5020 18.9547 109.3345 0.4084 -5.9642 -11.4912 0.4214 -4.1663 -11.5450 0.0000 0.0000 0.0000 11.4007 17.9151 -36.2560 -9.5427 -17.1445 57.9486 -2.2673 -5.7548 -30.9467 -0.0079 -0.5739 1.5770 -3.3876 -1.3059 31.1723 -3.6519 -4.5846 4.3870 -0.2372 -2.5453 -11.4210 -6.9994 -2.0099 -16.8428 5.9839 -1.9737 1.4250 2.8141 -0.8798 3.2259 0.0000 0.0000 0.0000 -74.0716 -22.2570 33.9810 73.2797 -58.9168 -45.5724 -0.0000 0.0000 -14.2032 26.2990 4.5550 2.2476 -7.1250 0.0000 -0.0000 -0.2965 35.0579 0.0724 0.0000 0.0000 0.0000 75.3282 25.8047 30.3440 -136.2179 50.1577 -98.7005 0.0000 -0.0000 -3.3969 -36.5705 -6.5065 4.8053 7.1250 -0.0000 -0.0000 -8.4173 -37.9387 -1.4759
2.1060 28.1108 0.6707 169.3470 -13.2336 -169.3390 0.0000 0.0000 0.0000 -23.0747 8.9681 -75.5660 27.5085 18.5908 112.4617 0.4441 -9.3549 -12.6725 0.6865 -5.2972 -14.7583 0.0000 0.0000 0.0000 12.2660 17.8251 -33.7116 -8.4955 -16.4719 54.3285 -1.9065 -7.2603 -29.5270 -0.0430 -1.3385 3.6806 -3.1794 -1.3726 31.2199 -3.5210 -4.5537 4.3057 -0.2187 -2.5193 -11.5346 -7.1280 -2.2783 -16.6063 6.0326 -2.3311 0.8777 2.8234 -1.0693 3.0472 -0.0000 -0.0000 0.0000 -74.3714 -23.0892 35.1563 68.0394 -58.0969 -41.1031 -0.0000 0.0000 -13.6427 27.4494 3.9304 2.0392 -7.1250 0.0000 -0.0000 0.6741 34.4064 -0.1753 -0.0000 -0.0000 0.0000 75.6183 24.2086 30.0738 -134.9587 50.7887 -97.7292 0.0000 -0.0000 -3.1098 -36.9526 -5.2569 3.9428 7.1250 -0.0000 -0.0000 -8.6505 -36.4294 -1.8401
2.1336 28.3667 0.6569 169.1910 -14.7876 -169.6650 0.0000 0.0000 0.0000 -22.8181 6.9957 -77.4774 27.9106 18.4282 113.7282 0.1902 -14.3261 -12.1369 0.7355 -5.4789 -15.2797 0.0000 0.0000 0.0000 12.7271 16.9300 -31.1077 -7.5384 -15.7690 50.8825 -1.6015 -8.7264 -28.4456 -0.0325 -1.1636 3.1991 -2.4911 -1.8442 31.4800 -3.6035 -4.9520 4.3951 -0.5139 -2.7283 -11.6064 -7.1207 -2.2757 -16.8471 6.0002 -2.3291 0.6348 2.8114 -1.0767 3.0082 0.0000 0.0000 0.0000 -74.6302 -23.8584 36.2397 63.4474 -57.1607 -37.2240 -0.0000 0.0000 -13.3360 28.6283 3.9008 2.1267 -7.1250 0.0000 -0.0000 1.6480 34.4182 -0.4282 0.0000 0.0000 0.0000 75.7885 22.9982 30.7019 -133.7399 51.3711 -96.7809 0.0000 -0.0000 -3.6816 -38.6914 -6.4215 5.1186 7.1250 -0.0000 -0.0000 -10.2422 -38.0001 -1.7877
